<svg width="190" height="88" viewBox="0 0 190 88" fill="none" xmlns="http://www.w3.org/2000/svg">
<path fill-rule="evenodd" clip-rule="evenodd" d="M49.623 21.9651L42.322 0L35.2839 21.1742L16.9012 7.09083L23.9933 30.0578L0 30.0578L18.4177 43.1383L0.156197 55.5289L23.5829 56.377L16.1656 78.6922L34.9023 65.3851L41.683 87.3434L49.3662 65.1184L68.4785 78.6922L61.5176 57.7505L84.0929 58.5678L65.0467 43.9761L84.644 30.0578L61.4866 30.0578L68.7769 8.96899L49.623 21.9651Z" fill="url(#paint0_linear_16_185)"/>
<path d="M34.0227 56V32.7273H38.9432V51.9432H48.9205V56H34.0227ZM59.9744 56.3409C58.2093 56.3409 56.6828 55.9659 55.3949 55.2159C54.1146 54.4583 53.1259 53.4053 52.429 52.0568C51.732 50.7008 51.3835 49.1288 51.3835 47.3409C51.3835 45.5379 51.732 43.9621 52.429 42.6136C53.1259 41.2576 54.1146 40.2045 55.3949 39.4545C56.6828 38.697 58.2093 38.3182 59.9744 38.3182C61.7396 38.3182 63.2623 38.697 64.5426 39.4545C65.8305 40.2045 66.8229 41.2576 67.5199 42.6136C68.2169 43.9621 68.5653 45.5379 68.5653 47.3409C68.5653 49.1288 68.2169 50.7008 67.5199 52.0568C66.8229 53.4053 65.8305 54.4583 64.5426 55.2159C63.2623 55.9659 61.7396 56.3409 59.9744 56.3409ZM59.9972 52.5909C60.8002 52.5909 61.4706 52.3636 62.0085 51.9091C62.5464 51.447 62.9517 50.8182 63.2244 50.0227C63.5047 49.2273 63.6449 48.322 63.6449 47.3068C63.6449 46.2917 63.5047 45.3864 63.2244 44.5909C62.9517 43.7955 62.5464 43.1667 62.0085 42.7045C61.4706 42.2424 60.8002 42.0114 59.9972 42.0114C59.1866 42.0114 58.5047 42.2424 57.9517 42.7045C57.4063 43.1667 56.9934 43.7955 56.7131 44.5909C56.4403 45.3864 56.304 46.2917 56.304 47.3068C56.304 48.322 56.4403 49.2273 56.7131 50.0227C56.9934 50.8182 57.4063 51.447 57.9517 51.9091C58.5047 52.3636 59.1866 52.5909 59.9972 52.5909ZM79.5767 62.9091C78.0085 62.9091 76.6638 62.6932 75.5426 62.2614C74.429 61.8371 73.5426 61.2576 72.8835 60.5227C72.2244 59.7879 71.7964 58.9621 71.5994 58.0455L76.0767 57.4432C76.2131 57.7917 76.429 58.1174 76.7244 58.4205C77.0199 58.7235 77.41 58.9659 77.8949 59.1477C78.3873 59.3371 78.9858 59.4318 79.6903 59.4318C80.7434 59.4318 81.6108 59.1742 82.2926 58.6591C82.982 58.1515 83.3267 57.2992 83.3267 56.1023V52.9091H83.1222C82.91 53.3939 82.5919 53.8523 82.1676 54.2841C81.7434 54.7159 81.1979 55.0682 80.5312 55.3409C79.8646 55.6136 79.0691 55.75 78.1449 55.75C76.8343 55.75 75.6411 55.447 74.5653 54.8409C73.4972 54.2273 72.6449 53.2917 72.0085 52.0341C71.3797 50.7689 71.0653 49.1705 71.0653 47.2386C71.0653 45.2614 71.3873 43.6098 72.0312 42.2841C72.6752 40.9583 73.5313 39.9659 74.5994 39.3068C75.6752 38.6477 76.8532 38.3182 78.1335 38.3182C79.1108 38.3182 79.929 38.4848 80.5881 38.8182C81.2472 39.1439 81.7775 39.553 82.179 40.0455C82.5881 40.5303 82.9025 41.0076 83.1222 41.4773H83.304V38.5455H88.1108V56.1705C88.1108 57.6553 87.7472 58.8977 87.0199 59.8977C86.2926 60.8977 85.285 61.6477 83.9972 62.1477C82.7169 62.6553 81.2434 62.9091 79.5767 62.9091ZM79.679 52.1136C80.4593 52.1136 81.1184 51.9205 81.6562 51.5341C82.2017 51.1402 82.6184 50.5795 82.9062 49.8523C83.2017 49.1174 83.3494 48.2386 83.3494 47.2159C83.3494 46.1932 83.2055 45.3068 82.9176 44.5568C82.6297 43.7992 82.2131 43.2121 81.6676 42.7955C81.1222 42.3788 80.4593 42.1705 79.679 42.1705C78.8835 42.1705 78.2131 42.3864 77.6676 42.8182C77.1222 43.2424 76.7093 43.8333 76.429 44.5909C76.1487 45.3485 76.0085 46.2235 76.0085 47.2159C76.0085 48.2235 76.1487 49.0947 76.429 49.8295C76.7169 50.5568 77.1297 51.1212 77.6676 51.5227C78.2131 51.9167 78.8835 52.1136 79.679 52.1136ZM99.8494 56.3409C98.0843 56.3409 96.5578 55.9659 95.2699 55.2159C93.9896 54.4583 93.0009 53.4053 92.304 52.0568C91.607 50.7008 91.2585 49.1288 91.2585 47.3409C91.2585 45.5379 91.607 43.9621 92.304 42.6136C93.0009 41.2576 93.9896 40.2045 95.2699 39.4545C96.5578 38.697 98.0843 38.3182 99.8494 38.3182C101.615 38.3182 103.137 38.697 104.418 39.4545C105.705 40.2045 106.698 41.2576 107.395 42.6136C108.092 43.9621 108.44 45.5379 108.44 47.3409C108.44 49.1288 108.092 50.7008 107.395 52.0568C106.698 53.4053 105.705 54.4583 104.418 55.2159C103.137 55.9659 101.615 56.3409 99.8494 56.3409ZM99.8722 52.5909C100.675 52.5909 101.346 52.3636 101.884 51.9091C102.421 51.447 102.827 50.8182 103.099 50.0227C103.38 49.2273 103.52 48.322 103.52 47.3068C103.52 46.2917 103.38 45.3864 103.099 44.5909C102.827 43.7955 102.421 43.1667 101.884 42.7045C101.346 42.2424 100.675 42.0114 99.8722 42.0114C99.0616 42.0114 98.3797 42.2424 97.8267 42.7045C97.2813 43.1667 96.8684 43.7955 96.5881 44.5909C96.3153 45.3864 96.179 46.2917 96.179 47.3068C96.179 48.322 96.3153 49.2273 96.5881 50.0227C96.8684 50.8182 97.2813 51.447 97.8267 51.9091C98.3797 52.3636 99.0616 52.5909 99.8722 52.5909ZM123.097 56H117.824L125.858 32.7273H132.199L140.222 56H134.949L129.119 38.0455H128.938L123.097 56ZM122.767 46.8523H135.222V50.6932H122.767V46.8523ZM153.653 62.5455V53.2045H153.506C153.278 53.6894 152.956 54.1705 152.54 54.6477C152.131 55.1174 151.597 55.5076 150.938 55.8182C150.286 56.1288 149.491 56.2841 148.551 56.2841C147.225 56.2841 146.025 55.9432 144.949 55.2614C143.881 54.572 143.032 53.5606 142.403 52.2273C141.782 50.8864 141.472 49.2424 141.472 47.2955C141.472 45.2955 141.794 43.6326 142.438 42.3068C143.081 40.9735 143.938 39.9773 145.006 39.3182C146.081 38.6515 147.259 38.3182 148.54 38.3182C149.517 38.3182 150.331 38.4848 150.983 38.8182C151.642 39.1439 152.172 39.553 152.574 40.0455C152.983 40.5303 153.294 41.0076 153.506 41.4773H153.71V38.5455H158.483V62.5455H153.653ZM150.085 52.4318C150.866 52.4318 151.525 52.2197 152.062 51.7955C152.608 51.3636 153.025 50.7614 153.312 49.9886C153.608 49.2159 153.756 48.3106 153.756 47.2727C153.756 46.2348 153.612 45.3333 153.324 44.5682C153.036 43.803 152.619 43.2121 152.074 42.7955C151.528 42.3788 150.866 42.1705 150.085 42.1705C149.29 42.1705 148.619 42.3864 148.074 42.8182C147.528 43.25 147.116 43.8485 146.835 44.6136C146.555 45.3788 146.415 46.2652 146.415 47.2727C146.415 48.2879 146.555 49.1856 146.835 49.9659C147.123 50.7386 147.536 51.3447 148.074 51.7841C148.619 52.2159 149.29 52.4318 150.085 52.4318ZM173.562 48.5682V38.5455H178.403V56H173.756V52.8295H173.574C173.18 53.8523 172.525 54.6742 171.608 55.2955C170.699 55.9167 169.589 56.2273 168.278 56.2273C167.112 56.2273 166.085 55.9621 165.199 55.4318C164.313 54.9015 163.619 54.1477 163.119 53.1705C162.627 52.1932 162.377 51.0227 162.369 49.6591V38.5455H167.21V48.7955C167.218 49.8258 167.494 50.6402 168.04 51.2386C168.585 51.8371 169.316 52.1364 170.233 52.1364C170.816 52.1364 171.362 52.0038 171.869 51.7386C172.377 51.4659 172.786 51.0644 173.097 50.5341C173.415 50.0038 173.57 49.3485 173.562 48.5682ZM182.276 56V38.5455H187.116V56H182.276ZM184.707 36.2955C183.988 36.2955 183.37 36.0568 182.855 35.5795C182.348 35.0947 182.094 34.5152 182.094 33.8409C182.094 33.1742 182.348 32.6023 182.855 32.125C183.37 31.6402 183.988 31.3977 184.707 31.3977C185.427 31.3977 186.041 31.6402 186.548 32.125C187.063 32.6023 187.321 33.1742 187.321 33.8409C187.321 34.5152 187.063 35.0947 186.548 35.5795C186.041 36.0568 185.427 36.2955 184.707 36.2955Z" fill="white"/>
<defs>
<linearGradient id="paint0_linear_16_185" x1="29" y1="7.19918e-09" x2="49" y2="76" gradientUnits="userSpaceOnUse">
<stop stop-color="#D9D9D9"/>
<stop offset="1" stop-color="#D9D9D9" stop-opacity="0"/>
</linearGradient>
</defs>
</svg>
